PathFileType	4	(X/Y/Z)	C:\Users\Kira\Nextcloud\Documents\MA\Daten\C3D\P01\post\Stand01\marker_experimental.trc																																																																																																																																																																																																																																																																																																																																																																																																																																																																																																																																																																																																																																																																																																																			
DataRate	CameraRate	NumFrames	NumMarkers	Units	OrigDataRate	OrigDataStartFrame	OrigNumFrames																																																																																																																																																																																																																																																																																																																																																																																																																																																																																																																																																																																																																																																																																																															
150	150	2	231	mm	150	0	150																																																																																																																																																																																																																																																																																																																																																																																																																																																																																																																																																																																																																																																																																																															
Frame#	Time	LFHD			LBHD			RFHD			RBHD			C7			T10			CLAV			STRN			RBAK			LSHO			LUPA			LELB			LFRA			LWRB			LWRA			LFIN			RSHO			RUPA			RELB			RFRA			RWRB			RWRA			RFIN			SACR			LASI			RASI			LT1			LT2			LT3			LS1			LS2			LS3			LHEE			LTOE			RT1			RT2			RT3			RS1			RS2			RS3			RHEE			RTOE			PELO			PELA			PELL			PELP			SACO			SACA			SACL			SACP			LFEO			LFEA			LFEL			LFEP			RFEO			RFEA			RFEL			RFEP			LTIO			LTIA			LTIL			LTIP			RTIO			RTIA			RTIL			RTIP			LFOO			LFOA			LFOL			LFOP			RFOO			RFOA			RFOL			RFOP			LTOO			LTOA			LTOL			LTOP			RTOO			RTOA			RTOL			RTOP			HEDO			HEDA			HEDL			HEDP			LCLO			LCLA			LCLL			LCLP			RCLO			RCLA			RCLL			RCLP			TRXO			TRXA			TRXL			TRXP			LHUO			LHUA			LHUL			LHUP			LRAO			LRAA			LRAL			LRAP			LHNO			LHNA			LHNL			LHNP			RHUO			RHUA			RHUL			RHUP			RRAO			RRAA			RRAL			RRAP			RHNO			RHNA			RHNL			RHNP			LPelvisAngles			RPelvisAngles			LFootProgressAngles			RFootProgressAngles			LHipAngles			RHipAngles			LKneeAngles			RKneeAngles			LAnkleAngles			RAnkleAngles			LFFootAngles			RFFootAngles			LAbsAnkleAngle			RAbsAnkleAngle			RNeckAngles			LNeckAngles			RSpineAngles			LSpineAngles			LShoulderAngles			LElbowAngles			LWristAngles			RShoulderAngles			RElbowAngles			RWristAngles			RThoraxAngles			LThoraxAngles			RHeadAngles			LHeadAngles			LHipPower			LKneePower			LAnklePower			RHipPower			RKneePower			RAnklePower			LWaistPower			RWaistPower			LNeckPower			RNeckPower			LShoulderPower			RShoulderPower			LElbowPower			RElbowPower			LWristPower			RWristPower			F_ForcePlate1			F_ForcePlate2			F_ForcePlate3			LGRF			RGRF			LHipForce			RHipForce			LKneeForce			RKneeForce			LAnkleForce			RAnkleForce			LWaistForce			RWaistForce			LNeckForce			RNeckForce			LShoulderForce			RShoulderForce			LElbowForce			RElbowForce			LWristForce			RWristForce			LNormalisedGRF			RNormalisedGRF			LGroundReactionForce			RGroundReactionForce			LHipMoment			RHipMoment			LKneeMoment			RKneeMoment			LAnkleMoment			RAnkleMoment			LWaistMoment			RWaistMoment			LNeckMoment			RNeckMoment			LShoulderMoment			RShoulderMoment			LElbowMoment			RElbowMoment			LWristMoment			RWristMoment			LKNE			RKNE			LANK			RANK			LKJC			RKJC			LAJC			RAJC			LTHI			RTHI			LTIB			RTIB			P_ForcePlate1			P_ForcePlate2			P_ForcePlate3			CentreOfMass			CentreOfMassFloor			funktRKJC			funktLKJC			funktRHIP			funktLHIP			LHJC			RHJC			LHF		
		X1	Y1	Z1	X2	Y2	Z2	X3	Y3	Z3	X4	Y4	Z4	X5	Y5	Z5	X6	Y6	Z6	X7	Y7	Z7	X8	Y8	Z8	X9	Y9	Z9	X10	Y10	Z10	X11	Y11	Z11	X12	Y12	Z12	X13	Y13	Z13	X14	Y14	Z14	X15	Y15	Z15	X16	Y16	Z16	X17	Y17	Z17	X18	Y18	Z18	X19	Y19	Z19	X20	Y20	Z20	X21	Y21	Z21	X22	Y22	Z22	X23	Y23	Z23	X24	Y24	Z24	X25	Y25	Z25	X26	Y26	Z26	X27	Y27	Z27	X28	Y28	Z28	X29	Y29	Z29	X30	Y30	Z30	X31	Y31	Z31	X32	Y32	Z32	X33	Y33	Z33	X34	Y34	Z34	X35	Y35	Z35	X36	Y36	Z36	X37	Y37	Z37	X38	Y38	Z38	X39	Y39	Z39	X40	Y40	Z40	X41	Y41	Z41	X42	Y42	Z42	X43	Y43	Z43	X44	Y44	Z44	X45	Y45	Z45	X46	Y46	Z46	X47	Y47	Z47	X48	Y48	Z48	X49	Y49	Z49	X50	Y50	Z50	X51	Y51	Z51	X52	Y52	Z52	X53	Y53	Z53	X54	Y54	Z54	X55	Y55	Z55	X56	Y56	Z56	X57	Y57	Z57	X58	Y58	Z58	X59	Y59	Z59	X60	Y60	Z60	X61	Y61	Z61	X62	Y62	Z62	X63	Y63	Z63	X64	Y64	Z64	X65	Y65	Z65	X66	Y66	Z66	X67	Y67	Z67	X68	Y68	Z68	X69	Y69	Z69	X70	Y70	Z70	X71	Y71	Z71	X72	Y72	Z72	X73	Y73	Z73	X74	Y74	Z74	X75	Y75	Z75	X76	Y76	Z76	X77	Y77	Z77	X78	Y78	Z78	X79	Y79	Z79	X80	Y80	Z80	X81	Y81	Z81	X82	Y82	Z82	X83	Y83	Z83	X84	Y84	Z84	X85	Y85	Z85	X86	Y86	Z86	X87	Y87	Z87	X88	Y88	Z88	X89	Y89	Z89	X90	Y90	Z90	X91	Y91	Z91	X92	Y92	Z92	X93	Y93	Z93	X94	Y94	Z94	X95	Y95	Z95	X96	Y96	Z96	X97	Y97	Z97	X98	Y98	Z98	X99	Y99	Z99	X100	Y100	Z100	X101	Y101	Z101	X102	Y102	Z102	X103	Y103	Z103	X104	Y104	Z104	X105	Y105	Z105	X106	Y106	Z106	X107	Y107	Z107	X108	Y108	Z108	X109	Y109	Z109	X110	Y110	Z110	X111	Y111	Z111	X112	Y112	Z112	X113	Y113	Z113	X114	Y114	Z114	X115	Y115	Z115	X116	Y116	Z116	X117	Y117	Z117	X118	Y118	Z118	X119	Y119	Z119	X120	Y120	Z120	X121	Y121	Z121	X122	Y122	Z122	X123	Y123	Z123	X124	Y124	Z124	X125	Y125	Z125	X126	Y126	Z126	X127	Y127	Z127	X128	Y128	Z128	X129	Y129	Z129	X130	Y130	Z130	X131	Y131	Z131	X132	Y132	Z132	X133	Y133	Z133	X134	Y134	Z134	X135	Y135	Z135	X136	Y136	Z136	X137	Y137	Z137	X138	Y138	Z138	X139	Y139	Z139	X140	Y140	Z140	X141	Y141	Z141	X142	Y142	Z142	X143	Y143	Z143	X144	Y144	Z144	X145	Y145	Z145	X146	Y146	Z146	X147	Y147	Z147	X148	Y148	Z148	X149	Y149	Z149	X150	Y150	Z150	X151	Y151	Z151	X152	Y152	Z152	X153	Y153	Z153	X154	Y154	Z154	X155	Y155	Z155	X156	Y156	Z156	X157	Y157	Z157	X158	Y158	Z158	X159	Y159	Z159	X160	Y160	Z160	X161	Y161	Z161	X162	Y162	Z162	X163	Y163	Z163	X164	Y164	Z164	X165	Y165	Z165	X166	Y166	Z166	X167	Y167	Z167	X168	Y168	Z168	X169	Y169	Z169	X170	Y170	Z170	X171	Y171	Z171	X172	Y172	Z172	X173	Y173	Z173	X174	Y174	Z174	X175	Y175	Z175	X176	Y176	Z176	X177	Y177	Z177	X178	Y178	Z178	X179	Y179	Z179	X180	Y180	Z180	X181	Y181	Z181	X182	Y182	Z182	X183	Y183	Z183	X184	Y184	Z184	X185	Y185	Z185	X186	Y186	Z186	X187	Y187	Z187	X188	Y188	Z188	X189	Y189	Z189	X190	Y190	Z190	X191	Y191	Z191	X192	Y192	Z192	X193	Y193	Z193	X194	Y194	Z194	X195	Y195	Z195	X196	Y196	Z196	X197	Y197	Z197	X198	Y198	Z198	X199	Y199	Z199	X200	Y200	Z200	X201	Y201	Z201	X202	Y202	Z202	X203	Y203	Z203	X204	Y204	Z204	X205	Y205	Z205	X206	Y206	Z206	X207	Y207	Z207	X208	Y208	Z208	X209	Y209	Z209	X210	Y210	Z210	X211	Y211	Z211	X212	Y212	Z212	X213	Y213	Z213	X214	Y214	Z214	X215	Y215	Z215	X216	Y216	Z216	X217	Y217	Z217	X218	Y218	Z218	X219	Y219	Z219	X220	Y220	Z220	X221	Y221	Z221	X222	Y222	Z222	X223	Y223	Z223	X224	Y224	Z224	X225	Y225	Z225	X226	Y226	Z226	X227	Y227	Z227	X228	Y228	Z228	X229	Y229	Z229	X230	Y230	Z230	X231	Y231	Z231
																																																																																																																																																																																																																																																																																																																																																																																																																																																																																																																																																																																																																																																																																																																						
1	0	-335.2152405	1546.035278	1294.363403	-332.4516602	1521.568481	1155.104248	-461.7681885	1543.594238	1300.568604	-483.4590454	1518.734863	1174.816528	-400.1682739	1406.742798	1144.163696	-392.843811	1226.334717	1081.475464	-407.2565308	1339.213623	1261.448975	-408.5016479	1302.880127	1282.122925	-507.224823	1268.341675	1070.78833	-254.1385651	1380.16748	1178.740356	-145.6834106	1189.687866	1149.915283	-88.4401474	1114.122803	1170.7052	-42.26281738	1070.874146	1192.201538	46.99830627	940.166748	1268.973145	20.21888733	948.3357544	1332.836304	75.86658478	899.6477051	1350.757202	-554.5865479	1368.454956	1169.691162	-622.5904541	1282.464722	1150.20874	-694.4329834	1093.562134	1139.217896	-817.9711304	952.6009521	1195.115356	-843.4474487	910.4295044	1213.06897	-843.4488525	936.0444946	1278.960938	-901.8953857	884.3040161	1287.86499	-393.6579285	971.2907715	1076.19397	-253.9286499	935.1506348	1262.850464	-539.9261475	934.5799561	1254.609375	-205.6341553	644.0539551	1233.667603	-190.8151398	553.3213501	1153.42041	-234.7162628	567.8649902	1289.028442	-202.6790924	258.333374	1177.902466	-187.9575348	179.2516785	1086.116089	-227.3534393	178.8264313	1222.772217	-275.4039612	39.20806122	1091.397583	-226.2421875	38.91633606	1252.127441	-583.2399902	661.1919556	1194.215698	-555.1055908	589.2227173	1097.266235	-582.0837402	572.6681519	1237.467041	-577.0430298	267.5701904	1152.906128	-555.3727417	202.4532471	1052.777954	-571.1588135	182.5675812	1192.776855	-495.2968445	41.03063965	1085.106567	-539.617981	40.05023193	1246.190308	-394.8580322	849.0026245	1193.901733	-395.2790527	846.0449219	1208.717407	-382.2683716	849.027771	1194.264526	-395.8143311	972.5161743	1218.532104	-393.4189453	959.5128784	1135.265991	-393.5943604	958.2804565	1141.439209	-387.124115	959.5253906	1135.447388	-393.8967896	1021.269592	1147.581299	-281.3409424	470.0117188	1216.868896	-274.3912354	473.0273743	1254.424194	-244.0056458	474.5863953	1209.592529	-331.9118958	849.1917114	1195.779297	-498.2311401	474.1635132	1204.173462	-505.2731018	476.1228027	1241.160278	-461.4138489	470.4244385	1211.381226	-457.8041077	848.8137207	1192.024292	-266.2099304	45.3626442	1149.465942	-248.1625061	40.68849564	1182.96521	-231.2864532	49.50174713	1131.22876	-280.1424255	436.3760376	1211.530029	-505.4585876	50.41261673	1141.620605	-521.0577393	45.38204575	1177.501465	-469.2329407	47.52959824	1156.965454	-498.8036499	440.5992126	1199.21875	-226.9722443	49.25321579	1252.824341	-227.9122925	62.563797	1253.72168	-214.2159882	50.41340256	1248.978149	-266.0301208	55.10862732	1125.050171	-539.2611084	50.2159729	1247.118042	-538.7984619	63.39482498	1248.320679	-526.4747925	49.46058273	1250.477051	-505.1445007	60.65537262	1119.5979	-214.1491241	47.6773262	1294.878906	-214.4460297	51.88066483	1295.162354	-210.1208496	48.04375839	1293.664429	-226.4826508	49.52689362	1254.529053	-550.4713745	47.12864304	1289.097046	-550.3253174	51.29039383	1289.476929	-546.4335938	46.8901062	1290.157837	-539.6976318	50.42578125	1248.827759	-409.3733826	1443.578491	1123.62561	-393.5532837	1484.807129	1345.13208	-184.2056274	1448.593506	1106.610596	-417.3974915	1665.592529	1082.875488	-257.7727356	1333.381714	1176.116455	-180.052536	1318.994385	1325.007202	-244.7383881	1501.183472	1185.527344	-406.7880249	1340.55542	1254.594849	-546.8896484	1322.161987	1167.098267	-632.0550537	1300.104248	1308.10437	-519.6719971	1158.462524	1157.929565	-406.7880249	1340.55542	1254.594727	-406.7880554	1340.55542	1254.594727	-417.9901428	1308.470215	1418.49353	-573.7342529	1338.174927	1242.718384	-402.1806335	1176.291626	1222.75293	-120.4624023	1095.682251	1168.828735	-207.4207764	1053.329224	911.8214111	-341.804657	964.8638306	1265.277832	-257.7727356	1333.381714	1176.116455	29.28072739	938.8659058	1299.778809	36.07401657	791.7915649	1115.88501	-160.5986176	826.6428223	1382.518066	-109.9803619	1084.705078	1177.995239	95.28842926	834.3530273	1391.580078	206.9725342	934.7460327	1425.570313	178.216507	782.3363647	1272.733032	29.28068542	938.8659058	1299.778809	-662.381958	1077.705444	1148.720337	-502.8746948	1018.197327	937.8851318	-848.5384521	1178.378174	979.4689331	-546.8897095	1322.161987	1167.098267	-838.5237427	918.6000977	1247.817627	-780.3453979	752.9786987	1085.314697	-1002.850647	1007.467529	1098.413452	-674.7119141	1066.567993	1155.657104	-935.3743286	826.2641602	1335.891235	-1059.19165	921.0037231	1299.059326	-904.5175171	916.6046143	1464.535522	-838.5236816	918.6000366	1247.817627	-0.43498528	1.596295834	-11.27762699	0.43498528	-1.596295834	-11.27762699	-4.2148633	-16.98033524	-2.623876572	-2.072302818	-14.93023014	-4.680242538	7.55945015	-12.21331692	-14.24721622	6.213683605	-9.164876938	-13.32021141	-3.085705757	-16.1792984	-13.01538277	-3.078729868	-11.53183842	-11.05621052	0.649249852	10.77454948	-5.619386196	0.308063388	8.266165733	-3.376405239	2.78E-15	7.95E-16	1.19E-15	2.44E-15	-3.98E-16	-2.39E-15	5.66E-16	0	-9.243203163	5.32E-16	0	-8.680268288	1.144938707	-8.323763847	21.33601379	-1.144938707	8.323763847	21.33601379	-1.160309911	2.234795809	0.23005785	1.160309911	-2.234795809	0.23005785	-29.16282845	-29.47003937	-6.112024784	5.61E-16	3.37E-13	-35.13874054	10.7907238	123.6478424	-1.708205819	-26.53877449	-39.99220276	-7.760565758	6.89E-15	-2.39E-12	-34.54065323	8.174917221	115.386795	-7.047673702	1.577311873	-3.838815689	-10.97044563	-1.577311873	3.838815689	-10.97044563	2.035933733	4.018959045	-10.40071774	-2.035933733	-4.018959045	-10.40071774	0	0	0	0	0	0	0	0	0	0	0	0	0	0	0	0	0	0	0	0	0	0	0	0	0	0	0	0	0	0	0	0	0	0	0	0	0	0	0	0	0	0	0	0	0	0	0	0	-398.0210266	1.304700017	259.0899963	-231.4150085	1.697000027	-251.3170013	-396.9869995	4.582600117	-949.9620361	0	0	0	0	0	0	0	0	0	0	0	0	0	0	0	0	0	0	0	0	0	0	0	0	0	0	0	0	0	0	0	0	0	0	0	0	0	0	0	0	0	0	0	0	0	0	0	0	0	0	0	0	0	0	0	0	0	0	0	0	0	0	0	0	0	0	0	0	0	0	0	0	0	0	0	0	0	0	0	0	0	0	0	0	0	0	0	0	0	0	0	0	0	0	0	0	0	0	0	0	0	0	0	0	0	0	0	0	0	0	0	0	0	0	-226.6213074	480.0550232	1205.936401	-552.1940308	482.301239	1193.468384	-230.3901062	46.34610367	1130.305542	-541.7924805	46.96671677	1125.341431	-281.3409119	470.0117188	1216.868896	-498.2311401	474.1635132	1204.173462	-266.3597412	49.56708908	1150.133301	-505.3869934	54.60817337	1142.239868	-194.620575	673.3257446	1184.495239	-588.4695435	672.7058105	1176.475586	-168.4057617	253.2867126	1125.786377	-610.8080444	254.1549225	1124.385254	-398.0210266	1.304700017	259.0899963	-231.4150085	1.697000027	-251.3170013	-396.9869995	4.582600117	-949.9620361	-397.9634399	934.5917358	1233.036987	-397.9634399	2.44E-14	1233.036987	0	0	0	0	0	0	0	0	0	0	0	0	-331.9119263	849.1915894	1195.779175	-457.8041077	848.8137207	1192.024292	0	0	0
2	0.006666667	-335.1958923	1546.025024	1294.439575	-332.452301	1521.566772	1155.179932	-461.7511902	1543.584961	1300.667236	-483.4566345	1518.731812	1174.91272	-400.1661987	1406.737793	1144.246338	-392.846344	1226.334106	1081.546021	-407.2444763	1339.201172	1261.530762	-408.4880066	1302.866333	1282.199463	-507.2312317	1268.338013	1070.880615	-254.1343384	1380.157715	1178.802124	-145.6898956	1189.673096	1149.96228	-88.44612885	1114.105835	1170.743896	-42.26983643	1070.85498	1192.235718	46.99171829	940.1420898	1268.998291	20.21469307	948.3076172	1332.862915	75.85162354	899.6104736	1350.782227	-554.5817871	1368.448486	1169.781494	-622.5861206	1282.460083	1150.294678	-694.4308472	1093.564331	1139.292358	-817.9904785	952.6251831	1195.134766	-843.4709473	910.4508667	1213.088013	-843.4761963	936.0606689	1278.972534	-901.9321899	884.3267822	1287.86377	-393.6583252	971.2988892	1076.273071	-253.9400635	935.1317749	1262.93042	-539.9429932	934.5747681	1254.667725	-205.6525726	644.0473633	1233.734009	-190.822464	553.3228149	1153.464111	-234.7361603	567.8504639	1289.071289	-202.6845551	258.3334351	1177.916748	-187.960144	179.2592926	1086.125854	-227.3602905	178.8223114	1222.780884	-275.4050598	39.21088028	1091.393921	-226.2436218	38.9161644	1252.125732	-583.2507935	661.1907959	1194.244385	-555.1044922	589.2305908	1097.292969	-582.0980225	572.661499	1237.490234	-577.0449829	267.5713501	1152.909058	-555.3691406	202.4599457	1052.783813	-571.1610107	182.5661774	1192.779663	-495.2956238	41.03530502	1085.105957	-539.6228027	40.04697418	1246.190552	-394.8711243	848.9981079	1193.96106	-395.293335	846.0386963	1208.776367	-382.2814941	849.022644	1194.324707	-395.8237	972.5088501	1218.605713	-393.42276	959.5151367	1135.338257	-393.5987244	958.2820435	1141.511353	-387.1279297	959.5274048	1135.520142	-393.8990784	1021.270508	1147.660522	-281.349823	470.0061951	1216.881348	-274.4052124	473.0162354	1254.437622	-244.0140839	474.5827026	1209.610718	-331.9252014	849.184082	1195.843262	-498.240509	474.1628723	1204.199463	-505.2866516	476.1196899	1241.185303	-461.4241943	470.4237976	1211.411133	-457.8169556	848.8121948	1192.078857	-266.2144165	45.36446762	1149.46521	-248.167984	40.6893692	1182.964355	-231.2909241	49.50437927	1131.229248	-280.1509705	436.3712158	1211.541382	-505.4562073	50.41501236	1141.627563	-521.0568237	45.38252258	1177.507568	-469.2311707	47.53209305	1156.973877	-498.8120728	440.5985718	1199.243164	-226.9738464	49.25301361	1252.822876	-227.9141388	62.56354904	1253.720581	-214.2177277	50.41356277	1248.97644	-266.0349731	55.11109543	1125.049805	-539.2661743	50.21267319	1247.118896	-538.803833	63.39147186	1248.322266	-526.4801636	49.45730209	1250.478882	-505.1398315	60.65956497	1119.601929	-214.1495514	47.67627335	1294.877075	-214.4465027	51.87960052	1295.160645	-210.1213074	48.04279709	1293.662476	-226.4843292	49.52667999	1254.527588	-550.4798584	47.12292862	1289.096802	-550.3338623	51.28465652	1289.476807	-546.4421387	46.88439178	1290.157837	-539.703125	50.42190552	1248.828369	-409.3777466	1443.578735	1123.708618	-393.5288696	1484.794678	1345.215332	-184.212204	1448.594849	1106.664673	-417.4072571	1665.595215	1082.972412	-257.7698975	1333.372192	1176.175293	-180.0276489	1318.971924	1325.056641	-244.7304077	1501.175903	1185.596924	-406.7766113	1340.543457	1254.676636	-546.8847656	1322.155762	1167.184692	-632.0440674	1300.086426	1308.195679	-519.6664429	1158.45459	1158.001831	-406.7765503	1340.543579	1254.676636	-406.7765808	1340.543457	1254.676636	-417.96521	1308.444946	1418.576538	-573.7265015	1338.163574	1242.813721	-402.1714172	1176.279419	1222.821289	-120.4692535	1095.666626	1168.868774	-207.4449158	1053.328491	911.8638916	-341.8118286	964.8525391	1265.325439	-257.7698669	1333.372192	1176.175293	29.27519798	938.8396606	1299.804443	36.05260849	791.7720947	1115.904663	-160.6038208	826.6206055	1382.550049	-109.9870834	1084.688721	1178.034302	95.26109314	834.3096313	1391.599976	206.9610901	934.6798096	1425.600342	178.1831055	782.2867432	1272.752808	29.27521515	938.8397217	1299.804443	-662.3831177	1077.707031	1148.805054	-502.8034668	1018.154846	938.0426636	-848.4674072	1178.361084	979.4701538	-546.8847656	1322.155762	1167.184692	-838.5500488	918.618103	1247.833374	-780.3044434	752.9974365	1085.380249	-1002.803528	1007.463684	1098.36438	-674.7148438	1066.570801	1155.736938	-935.4260254	826.2871704	1335.876099	-1059.220947	921.0444336	1299.033325	-904.5820313	916.6064453	1464.532959	-838.5499878	918.618042	1247.833374	-0.433324188	1.600992084	-11.28430367	0.433324188	-1.600992084	-11.28430367	-4.215845585	-16.98194122	-2.625052691	-2.070809364	-14.93479061	-4.683635235	7.562926769	-12.20984554	-14.24552631	6.210403919	-9.16724968	-13.32292652	-3.088751316	-16.18580627	-13.00925922	-3.078870296	-11.52783585	-11.05503273	0.648993611	10.77153015	-5.619726658	0.307884365	8.263988495	-3.375847578	7.38E-15	1.59E-15	-7.95E-16	2.24E-15	-1.37E-31	-7.95E-16	5.66E-16	0	-9.243419647	5.32E-16	0	-8.680238724	1.145629883	-8.326385498	21.33703041	-1.145629883	8.326385498	21.33703041	-1.161305308	2.225347757	0.232199803	1.161305308	-2.225347757	0.232199803	-29.16074181	-29.46953011	-6.114677429	6.92E-15	6.36E-13	-35.13920975	10.80008221	123.6475601	-1.706439614	-26.54039001	-40.02220535	-7.762084961	8.48E-15	9.16E-13	-34.53327179	8.178161621	115.4060745	-7.047712326	1.576526284	-3.834117651	-10.97501278	-1.576526284	3.834117651	-10.97501278	2.037297726	4.026277542	-10.39715958	-2.037297726	-4.026277542	-10.39715958	0	0	0	0	0	0	0	0	0	0	0	0	0	0	0	0	0	0	0	0	0	0	0	0	0	0	0	0	0	0	0	0	0	0	0	0	0	0	0	0	0	0	0	0	0	0	0	0	-398.0210266	1.304700017	259.0899963	-231.4150085	1.697000027	-251.3170013	-396.9869995	4.582600117	-949.9620361	0	0	0	0	0	0	0	0	0	0	0	0	0	0	0	0	0	0	0	0	0	0	0	0	0	0	0	0	0	0	0	0	0	0	0	0	0	0	0	0	0	0	0	0	0	0	0	0	0	0	0	0	0	0	0	0	0	0	0	0	0	0	0	0	0	0	0	0	0	0	0	0	0	0	0	0	0	0	0	0	0	0	0	0	0	0	0	0	0	0	0	0	0	0	0	0	0	0	0	0	0	0	0	0	0	0	0	0	0	0	0	0	0	0	-226.6294403	480.0548096	1205.95752	-552.2022705	482.3005371	1193.48877	-230.3940582	46.34913254	1130.305786	-541.7891235	46.96842575	1125.34668	-281.349823	470.0061951	1216.881226	-498.2405396	474.1628418	1204.199463	-266.3642578	49.56884384	1150.13269	-505.3847351	54.61053467	1142.247192	-194.6302948	673.324646	1184.550415	-588.4777832	672.7047119	1176.50415	-168.4122162	253.2875824	1125.79541	-610.8091431	254.1556091	1124.396729	-398.0210266	1.304700017	259.0899963	-231.4150085	1.697000027	-251.3170013	-396.9869995	4.582600117	-949.9620361	-397.9630737	934.5842285	1233.091309	-397.9630737	2.44E-14	1233.091309	0	0	0	0	0	0	0	0	0	0	0	0	-331.9251404	849.184021	1195.843262	-457.8170776	848.8121948	1192.078857	0	0	0
